<svg xmlns="http://www.w3.org/2000/svg" viewBox="0 0 64 80" x="0px" y="0px"><g data-name="01-Paper-bag"><path d="M53,50a1,1,0,0,0,1-1V23a1,1,0,0,0-1-1H52a10.87,10.87,0,0,0-1.89-5.24A5.13,5.13,0,0,1,49,14V13a1,1,0,0,0,1-1V9a3,3,0,0,0-3-3H42a3,3,0,0,0-3,3v3a1,1,0,0,0,1,1v1a3.39,3.39,0,0,1-.28,1.32,6,6,0,0,0-1.76-1,6,6,0,0,0-10-3.8V7a5,5,0,0,0-5-5H21a9,9,0,0,0-9,9V22H11a1,1,0,0,0-1,1v6a1,1,0,0,0,2,0V24H40V59a3,3,0,0,0,.18,1H13a1,1,0,0,1-1-1V33a1,1,0,0,0-2,0V59a3,3,0,0,0,3,3H51a3,3,0,0,0,3-3V53a1,1,0,0,0-2,0v5.59l-4-4V24h4V49A1,1,0,0,0,53,50ZM41,9a1,1,0,0,1,1-1h5a1,1,0,0,1,1,1v2H41Zm6,4v1a7,7,0,0,0,1.36,3.81A9,9,0,0,1,50,22H39.05a9,9,0,0,1,1.59-4.19A7,7,0,0,0,42,14V13ZM32,11a4,4,0,0,1,4,3.91.78.78,0,0,0,0,.16,1,1,0,0,0,.8,1,4,4,0,0,1,1.94,1A10.46,10.46,0,0,0,37,22H33V19.41l1.71-1.7a1,1,0,0,0-1.42-1.42L32,17.59l-1.29-1.3a1,1,0,0,0-1.42,1.42L31,19.41V22H24.57A3.89,3.89,0,0,1,24,20a4,4,0,0,1,3.21-3.92,1,1,0,0,0,.8-1c0-.06,0-.1,0-.07A4,4,0,0,1,32,11ZM14,18h5a1,1,0,0,0,0-2H14V12h5a1,1,0,0,0,0-2H14.08A7,7,0,0,1,21,4h2a3,3,0,0,1,3,3v7.35A6,6,0,0,0,22,20a5.9,5.9,0,0,0,.36,2H14ZM47,56.41,50.59,60H43.41Zm-1-1.82-4,4V24h4Z"/></g> </svg>