<svg width="200" class="_1envo" viewBox="0 0 200 200"><path d="M19.925 58.766a2 2 0 0 1-.123-.1c-.708-.878-5.087-6.363-9.548-13.399-1.339-2.242-2.208-3.99-2.04-4.442.436-1.176 8.214-1.82 10.61-.754.728.324.71.752.71 1.002 0 1.076-.054 3.964-.054 3.964a1.081 1.081 0 1 0 2.163-.005l-.012-7.195h-.002c0-.625-.682-.781-.81-.805-1.25-.006-3.79-.015-6.516-.015-6.015 0-7.36.247-8.382-.421C3.707 35.148.087 25.39.002 19.899c-.12-7.745 4.47-14.45 10.932-17.773C13.634.766 16.684 0 19.904 0c10.228 0 18.652 7.72 19.773 17.653q0 .013.003.026c.205 2.402-13.03 2.912-15.647 2.213-.402-.107-.505-.518-.505-.695l-.015-6.964a1.083 1.083 0 0 0-1.084-1.08h-.001a1.084 1.084 0 0 0-1.081 1.084l.021 9.466c.019.596.52.757.656.784 1.49 0 4.97-.003 8.213-.003 4.383 0 6.224.508 7.449 1.44.814.621 1.13 1.81.854 3.356-2.458 13.746-18.03 30.776-18.615 31.486m42.233-32.082c3.93 1.684 6.363 3.552 6.363 7.653 0 4.189-3.173 6.895-8.082 6.895-3.979 0-7.172-1.802-8.763-4.946l-.257-.506 4.678-2.71.306.5c1.053 1.722 2.23 2.456 3.939 2.456 1.472 0 2.461-.653 2.461-1.625 0-1.076-.716-1.48-2.929-2.449l-1.125-.482c-3.001-1.28-5.782-3.057-5.782-7.363 0-3.87 2.966-6.572 7.213-6.572 3.218 0 5.423 1.245 6.941 3.919l.282.496-4.533 2.913-.312-.56c-.758-1.355-1.471-1.627-2.378-1.627-.948 0-1.559.523-1.559 1.334 0 .932.45 1.34 2.411 2.19zm33.11.793 3.303-9.208h5.668l-8.4 23.343h-1.26L89.486 30.68c-.237-.501-.482-1.123-.692-1.693-.216.57-.466 1.194-.703 1.695l-5.295 10.93h-1.25L73.01 18.269h6.055l3.338 9.208c.214.587.432 1.303.623 1.967.227-.685.5-1.426.785-2.022l4.385-9.345h1.213l4.452 9.346c.284.596.558 1.337.784 2.022.192-.665.412-1.38.624-1.968m15.58 13.464V17.792h5.721v23.15zm24.477-7.777V27.99h10.622v10.375l-.219.181c-1.215.998-4.437 2.686-8.801 2.686-7.363 0-12.503-4.879-12.503-11.864 0-6.857 4.96-11.833 11.794-11.833 3.758 0 6.512 1.06 8.419 3.239l.372.426-3.899 3.86-.423-.436c-1.09-1.123-2.217-1.819-4.47-1.819-3.5 0-5.945 2.699-5.945 6.563 0 4.025 2.611 6.626 6.655 6.626 1.341 0 2.737-.23 3.688-.6v-2.23zm28.99 0V27.99h10.622v10.375l-.22.181c-1.216.998-4.437 2.686-8.8 2.686-7.363 0-12.504-4.879-12.504-11.864 0-6.857 4.961-11.833 11.793-11.833 3.76 0 6.515 1.06 8.42 3.239l.374.426-3.898 3.86-.425-.436c-1.09-1.123-2.218-1.819-4.471-1.819-3.5 0-5.944 2.699-5.944 6.563 0 4.025 2.612 6.626 6.655 6.626 1.341 0 2.737-.23 3.687-.6v-2.23zm31.583-15.372h5.979l-8.207 15.404v7.746h-5.751v-7.417l-8.743-15.733h6.38l4.04 7.381c.435.803.889 1.864 1.232 2.726.328-.855.761-1.907 1.193-2.719z"/></svg>